<svg width="202" height="82" viewBox="0 0 202 82" fill="none" xmlns="http://www.w3.org/2000/svg">
<path d="M126.554 27.4688L116.788 53.473H111.849L102.046 27.4688H106.611L114.319 49.0953L122.064 27.4688H126.554ZM128.699 43.0713C128.699 41.001 129.123 39.1676 129.971 37.5712C130.844 35.9747 132.017 34.74 133.488 33.867C134.985 32.969 136.631 32.52 138.427 32.52C140.049 32.52 141.458 32.8443 142.655 33.4928C143.878 34.1164 144.851 34.9021 145.574 35.85V32.8567H149.877V53.473H145.574V50.4049C144.851 51.3777 143.865 52.1884 142.618 52.8369C141.371 53.4855 139.949 53.8098 138.353 53.8098C136.582 53.8098 134.96 53.3608 133.488 52.4628C132.017 51.5399 130.844 50.2677 129.971 48.6463C129.123 47 128.699 45.1417 128.699 43.0713ZM145.574 43.1462C145.574 41.7244 145.275 40.4896 144.676 39.442C144.102 38.3943 143.341 37.5961 142.394 37.0473C141.446 36.4986 140.423 36.2242 139.325 36.2242C138.228 36.2242 137.205 36.4986 136.257 37.0473C135.309 37.5712 134.536 38.3569 133.937 39.4045C133.364 40.4273 133.077 41.6495 133.077 43.0713C133.077 44.4931 133.364 45.7404 133.937 46.8129C134.536 47.8855 135.309 48.7087 136.257 49.2824C137.23 49.8312 138.253 50.1056 139.325 50.1056C140.423 50.1056 141.446 49.8312 142.394 49.2824C143.341 48.7336 144.102 47.9354 144.676 46.8878C145.275 45.8152 145.574 44.568 145.574 43.1462ZM174.15 32.8567V53.473H169.884V51.041C169.211 51.8891 168.325 52.5626 167.228 53.0614C166.155 53.5354 165.008 53.7724 163.786 53.7724C162.164 53.7724 160.705 53.4356 159.408 52.7621C158.136 52.0886 157.126 51.0909 156.377 49.7688C155.654 48.4468 155.292 46.8504 155.292 44.9796V32.8567H159.52V44.3435C159.52 46.1893 159.982 47.6112 160.905 48.6089C161.828 49.5817 163.087 50.0682 164.684 50.0682C166.28 50.0682 167.54 49.5817 168.463 48.6089C169.411 47.6112 169.884 46.1893 169.884 44.3435V32.8567H174.15ZM184.043 25.7851V53.473H179.778V25.7851H184.043ZM194.62 36.3364V47.7484C194.62 48.5216 194.794 49.0829 195.144 49.4321C195.518 49.7564 196.141 49.9185 197.014 49.9185H199.634V53.473H196.266C194.345 53.473 192.874 53.024 191.851 52.126C190.828 51.2281 190.317 49.7688 190.317 47.7484V36.3364H187.885V32.8567H190.317V27.7307H194.62V32.8567H199.634V36.3364H194.62Z" fill="white"/>
<rect opacity="0.2" width="74.8323" height="74.8323" rx="37.4161" fill="white"/>
<rect x="32.7393" y="31.1801" width="49.8882" height="49.8882" rx="24.9441" fill="white"/>
</svg>
